<svg width="32" height="32" viewBox="0 0 32 32" xmlns="http://www.w3.org/2000/svg">
  <!-- Fundo com gradiente lo-fi -->
  <defs>
    <linearGradient id="lofiGradient" x1="0%" y1="0%" x2="100%" y2="100%">
      <stop offset="0%" style="stop-color:#1a1a2e;stop-opacity:1" />
      <stop offset="50%" style="stop-color:#16213e;stop-opacity:1" />
      <stop offset="100%" style="stop-color:#0f0f23;stop-opacity:1" />
    </linearGradient>
    <linearGradient id="waveGradient" x1="0%" y1="0%" x2="100%" y2="0%">
      <stop offset="0%" style="stop-color:#64b5f6;stop-opacity:0.8" />
      <stop offset="50%" style="stop-color:#81c784;stop-opacity:0.9" />
      <stop offset="100%" style="stop-color:#ba68c8;stop-opacity:0.8" />
    </linearGradient>
  </defs>
  
  <!-- Fundo circular -->
  <circle cx="16" cy="16" r="15" fill="url(#lofiGradient)" stroke="#64b5f6" stroke-width="0.5"/>
  
  <!-- Ondas sonoras (símbolo musical lo-fi) -->
  <path d="M8 12 Q12 10, 16 12 Q20 14, 24 12" stroke="url(#waveGradient)" stroke-width="1.5" fill="none" opacity="0.9"/>
  <path d="M8 16 Q12 14, 16 16 Q20 18, 24 16" stroke="url(#waveGradient)" stroke-width="1.5" fill="none" opacity="0.7"/>
  <path d="M8 20 Q12 18, 16 20 Q20 22, 24 20" stroke="url(#waveGradient)" stroke-width="1.5" fill="none" opacity="0.5"/>
  
  <!-- Nota musical estilizada -->
  <circle cx="12" cy="10" r="1.5" fill="#81c784"/>
  <rect x="13" y="6" width="0.8" height="8" fill="#81c784"/>
  <path d="M13.8 6 Q16 5, 18 6 Q16 7, 13.8 8" fill="#ba68c8"/>
  
  <!-- Ponto de foco (representing focus/meditation) -->
  <circle cx="20" cy="22" r="1" fill="#ff9d7f" opacity="0.8"/>
</svg>
